<svg xmlns="http://www.w3.org/2000/svg" xmlns:xlink="http://www.w3.org/1999/xlink" viewBox="0 0 126.44 35"><defs><style>.cls-1{fill:#303030;}.cls-2{fill:#8c99cd;}.cls-3{fill:url(#linear-gradient);}</style><linearGradient id="linear-gradient" x1="-1" y1="3.5" x2="34" y2="3.5" gradientTransform="translate(1 4)" gradientUnits="userSpaceOnUse"><stop offset="0" stop-color="#ff2c6d"/><stop offset="1" stop-color="#7fe4ff"/></linearGradient></defs><g id="Layer_2" data-name="Layer 2"><g id="Layer_1-2" data-name="Layer 1"><rect class="cls-1" x="69.11" y="5.52" width="3.51" height="21.07" rx="1.42"/><rect class="cls-1" x="105.98" y="5.52" width="3.51" height="21.07" rx="1.42"/><path class="cls-1" d="M58.57,9a6.65,6.65,0,0,0-3.64,1.09,1.76,1.76,0,0,0-3.38.66V28.35a1.76,1.76,0,1,0,3.51,0V25.59a6.63,6.63,0,0,0,3.51,1,7.29,7.29,0,0,0,7-7.53V16.56A7.29,7.29,0,0,0,58.57,9Zm3.51,10.21a3.52,3.52,0,1,1-7,0V16.38a3.52,3.52,0,1,1,7,0Z"/><path class="cls-1" d="M83.16,9h0a7.29,7.29,0,0,0-7,7.52v2.51a7.29,7.29,0,0,0,7,7.53h0a7.29,7.29,0,0,0,7-7.53V16.56A7.29,7.29,0,0,0,83.16,9Zm3.51,10.21a3.53,3.53,0,1,1-7,0V16.38a3.53,3.53,0,1,1,7,0Z"/><path class="cls-1" d="M100.71,23.08a3.51,3.51,0,0,1-3.51-3.51v-7h3.51a1.76,1.76,0,1,0,0-3.51H97.2V7.28a1.76,1.76,0,1,0-3.51,0V19.57a7,7,0,0,0,7,7,1.76,1.76,0,1,0,0-3.52Z"/><path class="cls-1" d="M125.38,9.18a1.76,1.76,0,0,0-2.31.92l-3.64,8.49-3.64-8.49a1.76,1.76,0,0,0-3.23,1.38l5,11.57-.59,1.38a3.5,3.5,0,0,1-3.16,2.16,1.76,1.76,0,0,0,0,3.51h0a7,7,0,0,0,6.32-4.31l6.13-14.31A1.75,1.75,0,0,0,125.38,9.18Z"/><circle class="cls-2" cx="22.5" cy="12.5" r="2.5"/><circle class="cls-2" cx="32.5" cy="2.5" r="2.5"/><circle class="cls-2" cx="22.5" cy="2.5" r="2.5"/><circle class="cls-2" cx="12.5" cy="2.5" r="2.5"/><circle class="cls-2" cx="2.5" cy="2.5" r="2.5"/><circle class="cls-2" cx="2.5" cy="12.5" r="2.5"/><circle class="cls-3" cx="22.5" cy="12.5" r="2.5"/><circle class="cls-3" cx="32.5" cy="2.5" r="2.5"/><circle class="cls-3" cx="22.5" cy="2.5" r="2.5"/><circle class="cls-3" cx="12.5" cy="2.5" r="2.5"/><circle class="cls-3" cx="2.5" cy="2.5" r="2.5"/><circle class="cls-3" cx="2.5" cy="12.5" r="2.5"/><path class="cls-1" d="M2.5,20A2.5,2.5,0,0,0,0,22.5v10a2.5,2.5,0,0,0,5,0v-10A2.5,2.5,0,0,0,2.5,20Z"/><path class="cls-1" d="M22.5,20A2.5,2.5,0,0,0,20,22.5v10a2.5,2.5,0,0,0,5,0v-10A2.5,2.5,0,0,0,22.5,20Z"/><path class="cls-1" d="M12.5,10A2.5,2.5,0,0,0,10,12.5v20a2.5,2.5,0,0,0,5,0v-20A2.5,2.5,0,0,0,12.5,10Z"/><path class="cls-1" d="M32.5,10A2.5,2.5,0,0,0,30,12.5v20a2.5,2.5,0,0,0,5,0v-20A2.5,2.5,0,0,0,32.5,10Z"/></g></g></svg>